<svg id="Layer_1" data-name="Layer 1" xmlns="http://www.w3.org/2000/svg" viewBox="0 0 507.46 279.89"><defs><style>.cls-1{fill:#6d6d6d;}.cls-2{fill:#565656;}.cls-3{fill:#a09d9c;}.cls-4{fill:#82807f;}</style></defs><title>cloud</title><path class="cls-1" d="M437.75,131.36A140,140,0,0,0,167,90.84a94.53,94.53,0,0,0,1.16,189.05h267a74.29,74.29,0,0,0,2.6-148.53Z" transform="translate(-2)"/><path class="cls-2" d="M509.46,205.59a74.31,74.31,0,0,1-74.3,74.3H429.4a74.3,74.3,0,0,0-63.27-108.64A140.06,140.06,0,0,0,197.21,42.95a139.94,139.94,0,0,1,240.55,88.42A74.27,74.27,0,0,1,509.46,205.59Z" transform="translate(-2)"/><path class="cls-1" d="M400.71,122.9A7.73,7.73,0,0,1,393.2,117a96.86,96.86,0,0,0-5.28-15.82A7.73,7.73,0,1,1,402.11,95a112.42,112.42,0,0,1,6.12,18.34,7.73,7.73,0,0,1-7.52,9.54Z" transform="translate(-2)"/><path class="cls-1" d="M374.27,74.64a7.7,7.7,0,0,1-5.57-2.38,97.07,97.07,0,0,0-70.62-30.16,7.73,7.73,0,0,1,0-15.45,112.39,112.39,0,0,1,81.77,34.91,7.73,7.73,0,0,1-5.57,13.08Z" transform="translate(-2)"/><path class="cls-3" d="M53.26,173.7a100.06,100.06,0,0,1,193.56-29A67.58,67.58,0,0,1,246,279.89H55.12A53.11,53.11,0,0,1,53.26,173.7Z" transform="translate(-2)"/><path class="cls-4" d="M313.59,212.3a67.58,67.58,0,0,1-66.66,67.57A67.57,67.57,0,0,0,198,166.6,100.16,100.16,0,0,0,89.35,102.77a100.05,100.05,0,0,1,157.48,42A67.57,67.57,0,0,1,313.59,212.3Z" transform="translate(-2)"/></svg>